<svg id="Layer_1" data-name="Layer 1" xmlns="http://www.w3.org/2000/svg" width="155" height="120" viewBox="0 0 155 120"><defs><style>.cls-1{fill:#fff;}.cls-2{fill:#f3ed7c;}.cls-3,.cls-4{fill:none;stroke-linecap:round;stroke-miterlimit:10;stroke-width:2px;}.cls-3{stroke:#fff;}.cls-4{stroke:#ff673c;}.cls-5{fill:#da4122;}</style></defs><title>sprite</title><path class="cls-1" d="M94,1V59H1V1H94m1-1H0V60H95V0Z"/><path class="cls-1" d="M22.71,8.4a3.38,3.38,0,0,0-3.1-1.86,3.28,3.28,0,0,0-3.16,2.55c-.6,3.81,8.62,2.22,7.42,9.81-.72,4.53-4,7.74-8.66,7.74-3.12,0-5.11-1.8-6.26-4.41l3.29-2.79a3.79,3.79,0,0,0,3.56,3.3,3.67,3.67,0,0,0,3.43-3.27c.37-2.34-1.69-3-3.35-3.69-2.72-1.2-4.62-2.67-4.06-6.18a8,8,0,0,1,7.67-6.78c2,0,4.64,1,5.78,2.52Z"/><path class="cls-1" d="M31.37,11.31l-1.26,8C29.84,21,29.79,23,31.92,23s2.72-2,3-3.69l1.26-8h4.2L39,20c-.68,4.29-3.25,6.54-7.63,6.54S25.12,24.27,25.8,20l1.37-8.67Z"/><path class="cls-1" d="M47.3,12.66a6.39,6.39,0,0,1,4.37-1.83c4.17,0,6.1,3.9,5.49,7.77-.64,4-3.71,7.92-8.06,7.92a4.09,4.09,0,0,1-3.64-1.86H45.4L43.94,33.9h-4.2l3.57-22.59h4.2Zm5.59,6c.31-2-.67-4.11-2.83-4.11s-3.82,2.13-4.13,4.11.67,4.14,2.82,4.14S52.57,20.64,52.89,18.66Z"/><path class="cls-1" d="M62.38,19.35c-.29,1.86.09,4,2.28,4a3.75,3.75,0,0,0,3.14-2l3.77.63a8.21,8.21,0,0,1-7.42,4.59c-4.56,0-6.84-3.24-6.13-7.71s3.63-8,8.4-8,6.42,3.57,5.72,8l-.08.51Zm6.14-2.61c0-1.5-.7-3-2.32-3s-2.84,1.44-3.29,3Z"/><path class="cls-1" d="M79.25,12.84h.06a5,5,0,0,1,4-2,4.43,4.43,0,0,1,1.68.36l-1.13,3.9a2.62,2.62,0,0,0-1.65-.54c-2.91,0-3.62,2.58-4,4.86l-1,6.63H73l2.33-14.73h4.2Z"/><path class="cls-1" d="M10.45,33.83h8L21.36,45h.2a23.68,23.68,0,0,1,.54-2.83l2.4-8.36h7.88l3.5,21.31H28.39l-1-11.67h-.14a17.86,17.86,0,0,1-.51,2.12l-3.08,9.55H19.1l-2.77-9a14.6,14.6,0,0,1-.48-2.66h-.25c-.06.85-.11,1.72-.2,2.57l-.9,9.1H7Z"/><path class="cls-1" d="M44.75,55.14h-8.2L44,33.83h8.56l7.6,21.31h-8.2l-.71-2.66H45.37Zm5.11-7.71L49,43.67c-.23-.9-.37-1.84-.51-2.74h-.28l-1.41,6.5Z"/><path class="cls-1" d="M83.12,42.59c-.06,3.48-.06,6.39-2.57,9.1a12.49,12.49,0,0,1-9,3.79c-6.5,0-11.76-4-11.76-10.85s5.11-11.13,11.81-11.13c3.7,0,8.79,1.84,10.46,5.48l-7.23,2.66A3.25,3.25,0,0,0,71.85,40c-2.77,0-4.29,2.37-4.29,4.95,0,2.35,1.47,4.55,4,4.55,1.21,0,2.77-.57,3.14-1.87h-3.5v-5Z"/><path class="cls-2" d="M94,61v58H1V61H94m1-1H0v60H95V60Z"/><path class="cls-2" d="M22.71,68.4a3.38,3.38,0,0,0-3.1-1.86,3.28,3.28,0,0,0-3.16,2.55c-.6,3.81,8.62,2.22,7.42,9.81-.72,4.53-4,7.74-8.66,7.74-3.12,0-5.11-1.8-6.26-4.41l3.29-2.79a3.79,3.79,0,0,0,3.56,3.3,3.67,3.67,0,0,0,3.43-3.27c.37-2.34-1.69-3-3.35-3.69-2.72-1.2-4.62-2.67-4.06-6.18a8,8,0,0,1,7.67-6.78c2,0,4.64,1,5.78,2.52Z"/><path class="cls-2" d="M31.37,71.31l-1.26,8C29.84,81,29.79,83,31.92,83s2.72-2,3-3.69l1.26-8h4.2L39,80c-.68,4.29-3.25,6.54-7.63,6.54S25.12,84.27,25.8,80l1.37-8.67Z"/><path class="cls-2" d="M47.3,72.66a6.39,6.39,0,0,1,4.37-1.83c4.17,0,6.1,3.9,5.49,7.77-.64,4-3.71,7.92-8.06,7.92a4.09,4.09,0,0,1-3.64-1.86H45.4L43.94,93.9h-4.2l3.57-22.59h4.2Zm5.59,6c.31-2-.67-4.11-2.83-4.11s-3.82,2.13-4.13,4.11.67,4.14,2.82,4.14S52.57,80.64,52.89,78.66Z"/><path class="cls-2" d="M62.38,79.35c-.29,1.86.09,4,2.28,4a3.75,3.75,0,0,0,3.14-2l3.77.63a8.21,8.21,0,0,1-7.42,4.59c-4.56,0-6.84-3.24-6.13-7.71s3.63-8,8.4-8,6.42,3.57,5.72,8l-.08.51Zm6.14-2.61c0-1.5-.7-3-2.32-3s-2.84,1.44-3.29,3Z"/><path class="cls-2" d="M79.25,72.84h.06a5,5,0,0,1,4-2,4.43,4.43,0,0,1,1.68.36l-1.13,3.9a2.62,2.62,0,0,0-1.65-.54c-2.91,0-3.62,2.58-4,4.86l-1,6.63H73l2.33-14.73h4.2Z"/><path class="cls-2" d="M10.45,93.83h8L21.36,105h.2a23.68,23.68,0,0,1,.54-2.83l2.4-8.36h7.88l3.5,21.31H28.39l-1-11.67h-.14a17.86,17.86,0,0,1-.51,2.12l-3.08,9.55H19.1l-2.77-9a14.6,14.6,0,0,1-.48-2.66h-.25c-.06.85-.11,1.72-.2,2.57l-.9,9.1H7Z"/><path class="cls-2" d="M44.75,115.14h-8.2L44,93.83h8.56l7.6,21.31h-8.2l-.71-2.66H45.37Zm5.11-7.71-.9-3.76c-.23-.9-.37-1.84-.51-2.74h-.28l-1.41,6.5Z"/><path class="cls-2" d="M83.12,102.59c-.06,3.48-.06,6.39-2.57,9.1a12.49,12.49,0,0,1-9,3.79c-6.5,0-11.76-4-11.76-10.85s5.11-11.13,11.81-11.13c3.7,0,8.79,1.84,10.46,5.48l-7.23,2.66A3.25,3.25,0,0,0,71.85,100c-2.77,0-4.29,2.37-4.29,4.95,0,2.35,1.47,4.55,4,4.55,1.21,0,2.77-.57,3.14-1.87h-3.5v-5Z"/><polyline class="cls-3" points="103.54 3.23 100 6.77 96.46 3.23"/><polyline class="cls-3" points="98.23 11.46 101.77 15 98.23 18.54"/><polyline class="cls-4" points="113.54 3.23 110 6.77 106.46 3.23"/><polyline class="cls-4" points="108.23 11.46 111.77 15 108.23 18.54"/><polygon class="cls-5" points="125 22.47 130.97 20 135.53 24.57 141.99 24.57 144.47 30.53 150.43 33.01 150.43 39.47 155 44.03 152.53 50 155 55.97 150.43 60.53 150.43 66.99 144.47 69.47 141.99 75.43 135.53 75.43 130.97 80 125 77.53 119.03 80 114.47 75.43 108.01 75.43 105.53 69.47 99.57 66.99 99.57 60.53 95 55.97 97.47 50 95 44.03 99.57 39.47 99.57 33.01 105.53 30.53 108.01 24.57 114.47 24.57 119.03 20 125 22.47"/><path class="cls-1" d="M113.8,48.49a4.37,4.37,0,0,0-4.08-.74c-3.23,1-4.64,4.7-4.19,7.83s2.8,5.51,5.94,4.54A6.55,6.55,0,0,0,115,57l.6,4.21a10.64,10.64,0,0,1-3.76,2.29c-4.86,1.5-9.09-1.78-9.81-6.78S104.13,46,109.19,44.4a7.5,7.5,0,0,1,4-.13Z"/><path class="cls-1" d="M128,51.84a7.21,7.21,0,0,1-5,8.11c-3.53,1.09-6.29-.79-6.81-4.44a7.24,7.24,0,0,1,5-8.13C124.74,46.29,127.52,48.16,128,51.84Zm-8.57,2.65c.23,1.59,1.48,3,3.13,2.47s2.41-2.53,2.18-4.12-1.48-3-3.13-2.49S119.24,52.86,119.48,54.49Z"/><path class="cls-1" d="M140.61,47.95a7.21,7.21,0,0,1-5,8.11c-3.53,1.09-6.29-.79-6.81-4.44a7.24,7.24,0,0,1,5-8.13C137.3,42.39,140.08,44.27,140.61,47.95ZM132,50.6c.23,1.59,1.48,3,3.13,2.47s2.41-2.53,2.18-4.12-1.48-3-3.13-2.49S131.81,49,132,50.6Z"/><path class="cls-1" d="M146.18,52.37l-3.21,1L140,33l3.21-1Z"/></svg>